<svg width="256" height="243" viewBox="0 0 256 243" fill="none" xmlns="http://www.w3.org/2000/svg">
<path d="M255.52 175.619C255.635 174.504 255.717 173.379 255.781 172.248C255.859 170.909 175.219 94.3973 175.219 94.3973H173.291C173.291 94.3973 255.027 180.613 255.52 175.619Z" fill="url(#paint0_linear)"/>
<path d="M83.472 149.077C83.3653 149.312 83.2587 149.547 83.1493 149.781C83.0347 150.027 82.9173 150.272 82.8 150.515C80.2293 155.875 118.787 193.568 121.888 188.989C122.029 188.787 122.171 188.573 122.312 188.371C122.469 188.131 122.624 187.901 122.779 187.661C125.259 183.896 84.5733 146.629 83.472 149.077Z" fill="url(#paint1_linear)"/>
<path d="M137.957 202.083C137.848 202.323 137.072 203.635 136.363 204.328C136.243 204.568 174.003 242.016 174.003 242.016H177.403C177.405 242.016 141.957 203.667 137.957 202.083Z" fill="url(#paint2_linear)"/>
<path d="M255.835 171.568C254.069 210.715 221.683 242.016 182.115 242.016H176.765L137.251 203.088C140.501 198.504 143.523 193.755 146.213 188.803H182.115C193.469 188.803 202.709 179.568 202.709 168.208C202.709 156.853 193.469 147.613 182.115 147.613H160.869C162.488 139.056 163.373 130.232 163.373 121.205C163.373 112.04 162.472 103.091 160.795 94.3973H173.992L255.603 174.811C255.699 173.733 255.776 172.656 255.835 171.568ZM21.4667 0H0V53.2133H21.4667C58.96 53.2133 89.4667 83.712 89.4667 121.205C89.4667 131.405 87.192 141.088 83.1493 149.781L122.312 188.371C135.171 169.131 142.688 146.032 142.688 121.205C142.688 54.3733 88.3067 0 21.4667 0Z" fill="url(#paint3_linear)"/>
<path d="M182.115 0H95.1867C116.419 12.9627 134 31.344 145.979 53.2133H182.115C193.469 53.2133 202.709 62.448 202.709 73.808C202.709 85.1653 193.469 94.4 182.115 94.4H173.995L255.605 174.813C255.797 172.632 255.917 170.437 255.917 168.208C255.917 150.269 249.48 133.813 238.792 121.005C249.48 108.203 255.917 91.744 255.917 73.808C255.917 33.112 222.813 0 182.115 0Z" fill="url(#paint4_linear)"/>
<path d="M176.765 242.016H95.808C112.104 231.952 126.192 218.667 137.251 203.088L176.765 242.016ZM122.312 188.371L83.152 149.781C72.3333 173.032 48.7573 189.203 21.4667 189.203H0V242.411H21.4667C63.4773 242.411 100.557 220.923 122.312 188.371Z" fill="url(#paint5_linear)"/>
<defs>
<linearGradient id="paint0_linear" x1="105.123" y1="18.8139" x2="256.773" y2="182.706" gradientUnits="userSpaceOnUse">
<stop stop-color="#F9A03C"/>
<stop offset="1" stop-color="#F7974E"/>
</linearGradient>
<linearGradient id="paint1_linear" x1="-21.4376" y1="48.3477" x2="122.63" y2="188.156" gradientUnits="userSpaceOnUse">
<stop stop-color="#F9A03C"/>
<stop offset="1" stop-color="#F7974E"/>
</linearGradient>
<linearGradient id="paint2_linear" x1="44.7758" y1="97.4701" x2="170.925" y2="246.109" gradientUnits="userSpaceOnUse">
<stop stop-color="#F9A03C"/>
<stop offset="1" stop-color="#F7974E"/>
</linearGradient>
<linearGradient id="paint3_linear" x1="29.0084" y1="-4.4088" x2="198.412" y2="231.973" gradientUnits="userSpaceOnUse">
<stop stop-color="#32DCA8"/>
<stop offset="0.0001" stop-color="#32DCA8"/>
<stop offset="1" stop-color="#00BE84"/>
</linearGradient>
<linearGradient id="paint4_linear" x1="120.652" y1="6.74435" x2="296.464" y2="112.961" gradientUnits="userSpaceOnUse">
<stop stop-color="#32DCA8"/>
<stop offset="1" stop-color="#48F679"/>
</linearGradient>
<linearGradient id="paint5_linear" x1="83.0517" y1="171.518" x2="85.4313" y2="286.439" gradientUnits="userSpaceOnUse">
<stop stop-color="#00CC8E"/>
<stop offset="0.578125" stop-color="#1DD59D"/>
<stop offset="1" stop-color="#32DCA8"/>
</linearGradient>
</defs>
</svg>
