<svg id="Group_930" data-name="Group 930" xmlns="http://www.w3.org/2000/svg" width="987.007" height="308.621" viewBox="0 0 987.007 308.621">
  <path id="Path_7396" data-name="Path 7396" d="M982.163,290.9q-10.328,1.1-20.761,2.274c-79.83,8.869-162.382,18.04-232.29-21.729-41.723-23.733-74.033-62.836-105.28-100.652-25.84-31.273-52.562-63.612-84.67-87.522C474.954,35.454,392.58,24.512,327.99,20.319c-16.383-1.063-33.1-1.815-49.273-2.542-56.554-2.545-115.033-5.175-170.294-21.6-2.51-.746-4.967-1.518-7.393-2.3H95.938c3.922,1.346,7.942,2.639,12.091,3.873,55.425,16.47,113.99,19.1,170.627,21.651,16.163.726,32.876,1.479,49.244,2.54,64.4,4.18,146.515,15.081,210.42,62.671,31.961,23.8,58.62,56.067,84.4,87.269,31.335,37.923,63.736,77.137,105.7,101.007,70.31,39.994,153.084,30.8,233.133,21.9q10.424-1.158,20.753-2.274c31.583-3.363,66.286-5.568,100.637-2.856V288.03C1048.53,285.323,1013.786,287.531,982.163,290.9Z" transform="translate(-95.938 6.124)" fill="#3b4d63"/>
</svg>
