<svg xmlns="http://www.w3.org/2000/svg" width="861.267" height="172.744" viewBox="0 0 861.267 172.744">
  <g id="Group_929" data-name="Group 929" transform="translate(0 -588.256)" opacity="0.7">
    <path id="Path_7397" data-name="Path 7397" d="M855.961,569.529c-.945-15.608-2.253-32.084-5.827-48.242-7.332-33.142-24.809-57.836-51.939-73.4-23.033-13.209-50.821-19.906-82.591-19.906a247.319,247.319,0,0,0-36.219,2.765C623.8,439.01,572.607,461.2,523.1,482.666c-22.953,9.95-46.689,20.238-70.433,28.936-47.09,17.249-91.018,25.993-130.565,25.993-30.3,0-58.141-5.22-82.742-15.513-30.148-12.613-54.054-34.123-77.175-54.925q-2.934-2.64-5.868-5.27c-25.467-22.807-54.259-45.339-92.17-55.71a193.257,193.257,0,0,0-50.982-6.816c-5.248,0-10.537.214-15.764.642v-2.579q7.833-.643,15.637-.64c31.586,0,63.685,7.917,90.378,22.294,23.262,12.529,42.763,30.11,61.622,47.113,6.557,5.91,13.336,12.022,20.182,17.841,16.712,14.2,30.572,23.763,44.935,31a185.812,185.812,0,0,0,54.408,17.145,246.026,246.026,0,0,0,38.663,3.011c66.33,0,130.939-25.433,191.43-51.482l8.207-3.539c33.518-14.463,68.176-29.42,104-40.066,33.224-9.876,62.42-14.677,89.253-14.677a198.753,198.753,0,0,1,35.689,3.125c36.422,6.672,67,24.916,83.888,50.058,15.929,23.708,20.087,52.188,22.206,79.431.31,3.988.562,7.932.773,11.488Z" transform="translate(2.597 191.471)" fill="#34b78d"/>
  </g>
</svg>
