<svg id="Group_931" data-name="Group 931" xmlns="http://www.w3.org/2000/svg" width="381.465" height="299.606" viewBox="0 0 381.465 299.606">
  <path id="Path_7393" data-name="Path 7393" d="M744.89,295.183c-5.593,0-11.105-.082-16.384-.248-49.438-1.543-87.051-9.879-118.369-26.231-33.771-17.634-58.606-45.832-68.137-77.361-9.939-32.881-2.182-67.639,5.688-94.248,3.056-10.336,6.585-20.789,9.995-30.9,7.278-21.571,14.8-43.876,18.418-66.874.192-1.218.373-2.472.542-3.749h2.747c-2.288,17.7-7.215,34.744-11.795,49.222-2.327,7.36-4.869,14.856-7.327,22.106-8.061,23.775-16.4,48.358-19.244,73.8-1.98,17.7-.871,34.053,3.294,48.6,4.738,16.539,14.041,32.625,26.9,46.52,23.866,25.78,58.535,42.933,103.049,50.988,21.37,3.866,44.431,5.745,70.506,5.745,28.3,0,57.072-2.206,84.9-4.337C857.415,286.1,886.1,283.9,914.2,283.9q2.28,0,4.57.019v3.006q-2.842-.026-5.68-.028c-15.04,0-31.345.567-49.842,1.732-11.048.7-22.272,1.531-33.128,2.336C802.19,293.04,773.3,295.183,744.89,295.183Z" transform="translate(-537.308 4.424)" fill="#34b78d"/>
</svg>
