<svg xmlns="http://www.w3.org/2000/svg" width="965.125" height="209.802" viewBox="0 0 965.125 209.802">
  <path id="Path_7414" data-name="Path 7414" d="M119.016,542.9c89.469,29.181,188,1.615,254.905-26.651,34.424-14.545,67.963-31.8,100.4-48.486,41.987-21.6,85.4-43.935,131.074-60.545,44.577-16.214,157.682-48.473,244.952,1.992,50.2,29.031,85.1,82.59,103.72,159.19,1.753,7.208,3.338,14.5,4.865,21.808h1.9c-1.547-7.417-3.155-14.824-4.936-22.146C937.168,491.025,902,437.123,851.378,407.846c-88.031-50.9-201.854-18.452-246.706-2.139-45.789,16.656-89.263,39.019-131.3,60.648-32.4,16.669-65.906,33.907-100.26,48.42C306.53,542.9,208.522,570.354,119.67,541.367c-31.665-10.33-60.544-27.381-88.472-43.874C19.554,490.617,7.77,483.674-4.3,477.16v1.919c11.7,6.346,23.139,13.091,34.448,19.77C58.169,515.392,87.141,532.5,119.016,542.9Z" transform="translate(4.297 -380.404)" fill="#3b4d63"/>
</svg>
